
<svg xmlns="http://www.w3.org/2000/svg" version="1.1" xmlns:xlink="http://www.w3.org/1999/xlink" preserveAspectRatio="none" x="0px" y="0px" width="730px" height="250px" viewBox="0 0 730 250">
<defs>
<g id="Layer0_4_FILL">
<path fill="#FFFFFF" stroke="none" d="
M 146 73.5
L 146.5 73.5 146.5 71.15 147.55 73.5 147.9 73.5 148.95 71.15 148.95 73.5 149.45 73.5 149.45 70.65 148.65 70.65 147.7 72.65 146.85 70.65 146 70.65 146 73.5
M 144.45 71.1
L 145.45 71.1 145.45 70.65 142.95 70.65 142.95 71.1 143.95 71.1 143.95 73.5 144.45 73.5 144.45 71.1 Z"/>
</g>

<g id="Layer0_5_MEMBER_0_FILL">
<path fill="#FFFFFF" stroke="none" d="
M 29.3 52.4
Q 25.55 56.1 25.55 61.4 25.55 66.7 29.3 70.4 33 74.15 38.3 74.15 42.15 74.15 45.3 72.05 48.4 70 49.9 66.55
L 47.2 65.15
Q 46.1 67.8 43.7 69.45 41.25 71.15 38.3 71.15 34.4 71.15 31.55 68.4 28.75 65.65 28.6 61.75
L 51 61.75 51.05 61.4
Q 51.05 56.1 47.3 52.4 43.6 48.65 38.3 48.65 33 48.65 29.3 52.4
M 29 58.75
Q 29.9 55.65 32.4 53.65 35 51.65 38.3 51.65 41.6 51.65 44.2 53.65 46.75 55.65 47.6 58.75
L 29 58.75
M 57.45 49.25
L 54.45 49.25 54.45 73.55 57.45 73.55 57.45 61.4
Q 57.5 57.35 60.35 54.5 63.2 51.65 67.2 51.65
L 67.2 48.65
Q 64.35 48.65 61.75 49.9 59.25 51.1 57.45 53.2
L 57.45 49.25
M 139.45 53.7
L 141.45 51.6
Q 137.95 48.25 134.6 48.25 131.75 48.25 129.8 50.1 127.85 52 127.85 54.8 127.85 56.95 129.05 58.6 130.15 60.2 133.6 62 136.7 63.6 137.6 64.65 138.5 65.7 138.5 67.05 138.5 68.7 137.15 69.95 135.8 71.15 133.9 71.15 131.15 71.15 128.75 68.4
L 126.75 70.7
Q 128.05 72.3 129.95 73.25 131.9 74.15 134.05 74.15 137.25 74.15 139.35 72.05 141.5 70 141.5 66.9 141.5 64.85 140.25 63.05 139.05 61.4 135.45 59.5 132.6 58.05 131.6 56.9 130.7 55.85 130.7 54.65 130.7 53.35 131.8 52.25 132.85 51.25 134.45 51.25 136.95 51.25 139.45 53.7
M 95.65 61.4
Q 95.65 56.1 91.9 52.4 88.15 48.65 82.85 48.65 80 48.65 77.4 49.9 74.9 51.1 73.15 53.2
L 73.15 39.4 70.1 39.4 70.1 61.4
Q 70.1 66.7 73.85 70.4 77.55 74.15 82.85 74.15 88.15 74.15 91.9 70.4 95.65 66.7 95.65 61.4
M 92.6 61.4
Q 92.6 65.4 89.75 68.3 86.9 71.15 82.85 71.15 78.85 71.15 76 68.3 73.15 65.4 73.15 61.4 73.15 57.35 76 54.5 78.85 51.65 82.85 51.65 86.9 51.65 89.75 54.5 92.6 57.4 92.6 61.4
M 102.1 70.4
Q 105.8 74.15 111.1 74.15 117 74.15 120.85 69.55
L 120.85 73.55 123.85 73.55 123.85 61.2
Q 123.8 56 120.05 52.3 116.35 48.65 111.1 48.65 105.8 48.65 102.1 52.4 98.35 56.1 98.35 61.4 98.35 66.7 102.1 70.4
M 118 54.5
Q 120.85 57.35 120.85 61.4 120.85 65.4 118 68.3 115.1 71.15 111.1 71.15 107.1 71.15 104.2 68.3 101.35 65.4 101.35 61.4 101.35 57.4 104.2 54.5 107.1 51.65 111.1 51.65 115.1 51.65 118 54.5 Z"/>
</g>

<g id="Layer0_6_MEMBER_0_FILL">
<path fill="#FFFFFF" stroke="none" d="
M 121.15 39.55
L 119.95 39.55 119.95 46.05 121.15 46.05 121.15 39.55
M 109.4 46.05
L 110.65 46.05 111.2 44.7 113.85 44.7 114.35 46.05 115.6 46.05 113.15 39.55 111.9 39.55 109.4 46.05
M 113.4 43.5
L 111.65 43.5 112.5 41.3 113.4 43.5
M 104.9 40.8
L 106.1 40.8 106.1 39.55 102.55 39.55 102.55 40.8 103.7 40.8 103.7 46.05 104.9 46.05 104.9 40.8
M 98.15 42.9
L 96.4 41.3 96.25 41
Q 96.25 40.9 96.45 40.7
L 96.8 40.6
Q 97.35 40.6 97.8 41.25
L 98.7 40.45
Q 98.2 39.85 97.75 39.65 97.25 39.4 96.85 39.4 96.05 39.4 95.6 39.9 95.05 40.35 95.05 41.05 95.05 41.5 95.35 41.95 95.75 42.5 96.75 43.3
L 97.45 43.95 97.6 44.4
Q 97.6 44.65 97.4 44.85 97.2 45 96.85 45 96.25 45 95.8 44.15
L 94.75 44.8
Q 95.2 45.6 95.65 45.85 96.15 46.2 96.85 46.2 97.65 46.2 98.3 45.65 98.8 45.2 98.8 44.35
L 98.65 43.6
Q 98.45 43.2 98.15 42.9
M 81.5 44.35
L 81.35 43.6 80.8 42.9 79.05 41.3
Q 78.95 41.2 78.95 41
L 79.1 40.7
Q 79.3 40.6 79.5 40.6 80 40.6 80.45 41.25
L 81.35 40.45
Q 80.95 39.95 80.4 39.65 80 39.4 79.5 39.4 78.75 39.4 78.25 39.9 77.75 40.35 77.75 41.05 77.75 41.5 78.05 41.95 78.35 42.5 79.4 43.3
L 80.1 43.95
Q 80.3 44.25 80.3 44.4 80.3 44.6 80.05 44.85 79.85 45 79.55 45 78.9 45 78.45 44.15
L 77.4 44.8
Q 77.85 45.6 78.3 45.85 78.8 46.2 79.5 46.2 80.3 46.2 80.95 45.65 81.5 45.2 81.5 44.35
M 90.45 39.55
L 89.2 39.55 89.2 43.6
Q 89.2 44.3 89.1 44.45 89.05 44.7 88.8 44.85 88.6 45 88.25 45 87.95 45 87.7 44.85 87.5 44.8 87.4 44.5
L 87.3 43.75 87.3 39.55 86.05 39.55 86.05 43.4
Q 86.05 44.55 86.3 45.05 86.5 45.55 87.05 45.85 87.55 46.2 88.25 46.2 88.85 46.2 89.2 46 89.65 45.85 89.9 45.5
L 90.35 44.75 90.45 39.55
M 131.1 39.55
L 129.9 39.55 129.9 43.8 127.1 39.55 125.95 39.55 125.95 46.05 127.15 46.05 127.15 41.8 129.95 46.05 131.1 46.05 131.1 39.55 Z"/>
</g>

<g id="Layer0_7_MEMBER_0_FILL">
<path fill="#FFFFFF" stroke="none" d="
M 150.2 34.2
Q 150.35 37.3 149 40.45 151.85 39.5 154.45 39.55 150.7 40.9 147.85 42.8 146.45 45.3 144.35 47.75 158.6 54.5 167.35 37.4 157.4 31 150.2 34.2 Z"/>
</g>

<g id="Layer0_7_MEMBER_1_FILL">
<path fill="#FFFFFF" stroke="none" d="
M 137.7 25.55
Q 129.45 39 141.15 45.8 142.75 40.8 141.55 35 144.2 39.3 143.45 46.85 152.7 32.75 137.7 25.55 Z"/>
</g>
</defs>

<g transform="matrix( 5.14666748046875, 0, 0, 5.14666748046875, -131.5,-131.5) ">
<use xlink:href="#Layer0_4_FILL"/>
</g>

<g transform="matrix( 5.14666748046875, 0, 0, 5.14666748046875, -131.5,-131.5) ">
<use xlink:href="#Layer0_5_MEMBER_0_FILL"/>
</g>

<g transform="matrix( 5.14666748046875, 0, 0, 5.14666748046875, -131.5,-131.5) ">
<use xlink:href="#Layer0_6_MEMBER_0_FILL"/>
</g>

<g transform="matrix( 5.14666748046875, 0, 0, 5.14666748046875, -131.5,-131.5) ">
<use xlink:href="#Layer0_7_MEMBER_0_FILL"/>
</g>

<g transform="matrix( 5.14666748046875, 0, 0, 5.14666748046875, -131.5,-131.5) ">
<use xlink:href="#Layer0_7_MEMBER_1_FILL"/>
</g>
</svg>
