<?xml version="1.0" encoding="UTF-8" standalone="no"?>
<!DOCTYPE svg PUBLIC "-//W3C//DTD SVG 1.1//EN" "http://www.w3.org/Graphics/SVG/1.1/DTD/svg11.dtd">
<svg width="100%" height="100%" viewBox="0 0 359 359" version="1.1" xmlns="http://www.w3.org/2000/svg" xmlns:xlink="http://www.w3.org/1999/xlink" xml:space="preserve" style="fill-rule:evenodd;clip-rule:evenodd;stroke-linejoin:round;stroke-miterlimit:1.41421;">
    <g transform="matrix(1,0,0,1,-128.065,-474.062)">
        <path id="logo-symbol" d="M450.972,653.508C444.19,659.988 417.066,671.443 368.866,677.124C369.209,668.846 369.41,660.864 369.41,653.508C369.41,646.135 369.209,638.153 368.866,629.875C417.066,635.556 444.19,647.011 450.972,653.508M331.115,592.137C322.843,591.776 314.854,591.593 307.482,591.593C300.145,591.593 292.145,591.776 283.885,592.137C289.565,543.919 301.009,516.813 307.482,510.026C313.992,516.813 325.435,543.919 331.115,592.137M246.123,629.875C245.779,638.153 245.59,646.135 245.59,653.508C245.59,660.864 245.779,668.846 246.123,677.124C197.911,671.443 170.81,659.988 164.03,653.508C170.81,647.011 197.911,635.556 246.123,629.875M333.908,679.899C325.517,680.277 316.784,680.532 307.482,680.532C298.216,680.532 289.483,680.277 281.104,679.899C280.714,671.526 280.476,662.787 280.476,653.508C280.476,644.212 280.714,635.473 281.104,627.1C289.483,626.722 298.216,626.48 307.482,626.48C316.784,626.48 325.517,626.722 333.908,627.1C334.275,635.473 334.523,644.212 334.523,653.508C334.523,662.787 334.275,671.526 333.908,679.899M283.885,714.874C292.145,715.223 300.145,715.406 307.482,715.406C314.854,715.406 322.843,715.223 331.115,714.874C325.435,763.08 313.992,790.169 307.482,796.962C301.009,790.169 289.565,763.08 283.885,714.874M366.298,594.699C360.121,535.658 343.612,474.062 307.482,474.062C271.388,474.062 254.867,535.658 248.703,594.699C189.65,600.864 128.065,617.391 128.065,653.508C128.065,689.62 189.65,706.135 248.703,712.301C254.867,771.352 271.388,832.938 307.482,832.938C343.612,832.938 360.121,771.352 366.298,712.301C425.35,706.135 486.935,689.62 486.935,653.508C486.935,617.391 425.35,600.877 366.298,594.699" style="fill:white;fill-opacity:0.168627;fill-rule:nonzero;"/>
    </g>
</svg>
